<svg width="10.85in" height="7.3761in" version="1.1" viewBox="0 0 275.59 187.35" xmlns="http://www.w3.org/2000/svg">
 <g transform="translate(-49.5 -142.45)">
  <g fill="none" stroke="#000" stroke-width="4.1862">
   <path d="m163.58 192.34c-12.758 11.953-24.03 20.463-38.5 20.463 12.825 0 90.924 77.644 148.26 79.24-22.791 0-69.177 35.496-106.67 35.661-41.062 0.18059-103.98-38.032-117.17-38.032 14.001 0 39.001-6.4602 53.823-11.634"/>
   <path d="m220.6 271.91c4.711-8.8383 41.138-47.606 58.749-48.745-17.778 0-61.717-42.95-89.627-42.95-7.4398 0-16.312 0.51996-22.362 7.4848"/>
   <path d="m192.7 255.76c10.638-8.663 25.489-39.923 35.481-57.261"/>
   <path d="m111.76 274.98c12.508-4.1892 18.963-6.3917 30.044-12.72"/>
   <path d="m149.05 258.23c7.4074-4.0106 12.105-9.305 17.801-13.458"/>
   <path d="m172.66 240.28c9.9622-8.7949 20.951-28.115 37.886-28.815-18.857 0-45.17-31.05-74.493-31.346-10.923 0-27.282 10.132-27.282 10.132"/>
   <path d="m97.117 196.17s-27.774 23.488-42.203 23.488c20.019 0 60.199 89.311 110.17 90.694 30.187 0 44.823-18.414 52.455-31.899"/>
   <path d="m230.64 193.13c7.3535-11.916 25.125-27.602 43.94-27.602-17.449 0-73.629-22.073-111.39-20.951-28.637 0.85123-66.284 20.876-83.374 20.876 20.142 0 47.183 103.24 86.788 104.01 7.7935-0.0386 21.177-9.9085 21.177-9.9085"/>
  </g>
  <text x="297.08456" y="228.8149" fill="#000000" font-family="sans-serif" font-size="14.768px" stroke-width=".3692" style="line-height:1.25" xml:space="preserve"><tspan x="297.08456" y="228.8149" stroke-width=".3692">(2)</tspan></text>
  <path d="m294.4 165.32h20.997" fill="none" stroke="#000" stroke-width="1.3954"/>
  <text x="299.98947" y="161.39523" fill="#000000" font-family="sans-serif" font-size="14.768px" stroke-width=".3692" style="line-height:1.25" xml:space="preserve"><tspan x="299.98947" y="161.39523" stroke-width=".3692">1</tspan></text>
  <text x="292.65604" y="180.85577" fill="#000000" font-family="sans-serif" font-size="14.768px" stroke-width=".3692" style="line-height:1.25" xml:space="preserve"><tspan x="292.65604" y="180.85577" stroke-width=".3692">1-r</tspan></text>
  <path d="m289.14 150.03c-4.6672 9.6086-5.3028 20.128 0 31.988" fill="none" stroke="#000" stroke-width="1.3954"/>
  <path d="m320.66 149.85c4.6672 9.6086 5.3028 20.128 0 31.988" fill="none" stroke="#000" stroke-width="1.3954"/>
 </g>
</svg>
