<svg width="24.49in" height="7.3761in" version="1.1" viewBox="0 0 622.06 187.35" xmlns="http://www.w3.org/2000/svg">
 <g transform="translate(-2.9527 -4.6884)">
  <g fill="none" stroke="#000" stroke-width="4.1862">
   <path d="m117.03 54.584c-12.758 11.953-24.03 20.463-38.5 20.463 12.825 0 90.924 77.644 148.26 79.24-22.791 0-69.177 35.496-106.67 35.661-41.062 0.18059-103.98-38.032-117.17-38.032 14.001 0 39.001-6.4602 53.823-11.634"/>
   <path d="m174.05 134.15c4.711-8.8383 41.138-47.606 58.749-48.745-17.778 0-61.717-42.95-89.627-42.95-7.4398 0-16.312 0.51996-22.362 7.4848"/>
   <path d="m146.15 118c10.638-8.663 25.489-39.923 35.481-57.261"/>
   <path d="m65.212 137.22c12.508-4.1892 18.963-6.3917 30.044-12.72"/>
   <path d="m102.51 120.47c7.4074-4.0106 12.105-9.305 17.801-13.458"/>
   <path d="m126.12 102.52c9.9622-8.7949 20.951-28.115 37.886-28.815-18.857 0-45.17-31.05-74.493-31.346-10.923 0-27.282 10.132-27.282 10.132"/>
   <path d="m50.57 58.41s-27.774 23.488-42.203 23.488c20.019 0 60.199 89.311 110.17 90.694 30.187 0 44.823-18.414 52.455-31.899"/>
   <path d="m184.09 55.376c7.3535-11.916 25.125-27.602 43.94-27.602-17.449 0-73.629-22.073-111.39-20.951-28.637 0.85123-66.284 20.876-83.374 20.876 20.142 0 47.183 103.24 86.788 104.01 7.7935-0.0386 21.177-9.9085 21.177-9.9085"/>
  </g>
  <text x="250.53752" y="91.056412" fill="#000000" font-family="sans-serif" font-size="14.768px" stroke-width=".3692" style="line-height:1.25" xml:space="preserve"><tspan x="250.53752" y="91.056412" stroke-width=".3692">(4)</tspan></text>
  <path d="m247.85 27.563h20.997" fill="none" stroke="#000" stroke-width="1.3954"/>
  <text x="253.44243" y="23.636745" fill="#000000" font-family="sans-serif" font-size="14.768px" stroke-width=".3692" style="line-height:1.25" xml:space="preserve"><tspan x="253.44243" y="23.636745" stroke-width=".3692">1</tspan></text>
  <text x="246.10899" y="43.09729" fill="#000000" font-family="sans-serif" font-size="14.768px" stroke-width=".3692" style="line-height:1.25" xml:space="preserve"><tspan x="246.10899" y="43.09729" stroke-width=".3692">1-r</tspan></text>
  <g fill="none" stroke="#000">
   <path d="m242.59 12.272c-4.6672 9.6086-5.3028 20.128 0 31.988" stroke-width="1.3954"/>
   <path d="m274.11 12.094c4.6672 9.6086 5.3028 20.128 0 31.988" stroke-width="1.3954"/>
   <g stroke-width="4.1862">
    <path d="m462.94 54.584c-12.758 11.953-24.03 20.463-38.5 20.463 12.825 0 90.924 77.644 148.26 79.24-22.791 0-69.177 35.496-106.67 35.661-41.062 0.18059-103.98-38.032-117.17-38.032 14.001 0 39.001-6.4602 53.823-11.634"/>
    <path d="m519.97 134.15c4.711-8.8383 41.138-47.606 58.749-48.745-17.778 0-61.717-42.95-89.627-42.95-7.4398 0-16.312 0.51996-22.362 7.4848"/>
    <path d="m492.06 118c10.638-8.663 25.489-39.923 35.481-57.261"/>
    <path d="m411.12 137.22c12.508-4.1892 18.963-6.3917 30.044-12.72"/>
    <path d="m448.42 120.47c7.4074-4.0106 12.105-9.305 17.801-13.458"/>
    <path d="m472.03 102.52c9.9622-8.7949 20.951-28.115 37.886-28.815-18.857 0-45.17-31.05-74.493-31.346-10.923 0-27.282 10.132-27.282 10.132"/>
    <path d="m396.48 58.41s-27.774 23.488-42.203 23.488c20.019 0 60.199 89.311 110.17 90.694 30.187 0 44.823-18.414 52.455-31.899"/>
    <path d="m530 55.376c7.3535-11.916 25.125-27.602 43.94-27.602-17.449 0-73.629-22.073-111.39-20.951-28.637 0.85123-66.284 20.876-83.374 20.876 20.142 0 47.183 103.24 86.788 104.01 7.7935-0.0386 21.177-9.9085 21.177-9.9085"/>
   </g>
  </g>
  <text x="590.44952" y="91.056396" fill="#000000" font-family="sans-serif" font-size="14.768px" stroke-width=".3692" style="line-height:1.25" xml:space="preserve"><tspan x="590.44952" y="91.056396" stroke-width=".3692">(r-1)</tspan></text>
  <path d="m600.43 27.563h13.677" fill="none" stroke="#000" stroke-width="1.4"/>
  <text x="602.35437" y="23.636745" fill="#000000" font-family="sans-serif" font-size="14.768px" stroke-width=".3692" style="line-height:1.25" xml:space="preserve"><tspan x="602.35437" y="23.636745" stroke-width=".3692">1</tspan></text>
  <text x="602.05481" y="43.097286" fill="#000000" font-family="sans-serif" font-size="14.768px" stroke-width=".3692" style="line-height:1.25" xml:space="preserve"><tspan x="602.05481" y="43.097286" stroke-width=".3692">4</tspan></text>
  <g fill="none" stroke="#000">
   <path d="m588.51 12.272c-4.6672 9.6086-5.3028 20.128 0 31.988" stroke-width="1.3954"/>
   <path d="m620.02 12.094c4.6672 9.6086 5.3028 20.128 0 31.988" stroke-width="1.3954"/>
   <path d="m591.07 27.563h6.3576" stroke-width="1.355"/>
  </g>
 </g>
</svg>
