<?xml version="1.0" encoding="UTF-8" standalone="no"?>
<svg
   xmlns:dc="http://purl.org/dc/elements/1.1/"
   xmlns:cc="http://creativecommons.org/ns#"
   xmlns:rdf="http://www.w3.org/1999/02/22-rdf-syntax-ns#"
   xmlns:svg="http://www.w3.org/2000/svg"
   xmlns="http://www.w3.org/2000/svg"
   xmlns:sodipodi="http://sodipodi.sourceforge.net/DTD/sodipodi-0.dtd"
   xmlns:inkscape="http://www.inkscape.org/namespaces/inkscape"
   width="24.490488in"
   height="7.3761082in"
   viewBox="0 0 622.05838 187.35315"
   version="1.1"
   id="svg889"
   inkscape:version="1.0.2 (e86c8708, 2021-01-15)"
   sodipodi:docname="whitehead.svg">
  <defs
     id="defs883" />
  <sodipodi:namedview
     id="base"
     pagecolor="#ffffff"
     bordercolor="#666666"
     borderopacity="1.0"
     inkscape:pageopacity="0.0"
     inkscape:pageshadow="2"
     inkscape:zoom="0.27806713"
     inkscape:cx="1145.5963"
     inkscape:cy="165.7781"
     inkscape:document-units="mm"
     inkscape:current-layer="layer1"
     inkscape:document-rotation="0"
     showgrid="false"
     units="in"
     inkscape:window-width="1280"
     inkscape:window-height="657"
     inkscape:window-x="0"
     inkscape:window-y="25"
     inkscape:window-maximized="0"
     fit-margin-top="0"
     fit-margin-left="0"
     fit-margin-right="0"
     fit-margin-bottom="0" />
  <metadata
     id="metadata886">
    <rdf:RDF>
      <cc:Work
         rdf:about="">
        <dc:format>image/svg+xml</dc:format>
        <dc:type
           rdf:resource="http://purl.org/dc/dcmitype/StillImage" />
        <dc:title></dc:title>
      </cc:Work>
    </rdf:RDF>
  </metadata>
  <g
     inkscape:label="Layer 1"
     inkscape:groupmode="layer"
     id="layer1"
     transform="translate(-2.9526908,-4.6883572)">
    <path
       style="fill:none;stroke:#000000;stroke-width:4.18616;stroke-linecap:butt;stroke-linejoin:miter;stroke-miterlimit:4;stroke-dasharray:none;stroke-opacity:1"
       d="m 117.02804,54.583795 c -12.75826,11.9526 -24.030347,20.46316 -38.499807,20.46316 12.82496,0 90.924437,77.644175 148.259907,79.240315 -22.79053,0 -69.17659,35.49595 -106.66592,35.66051 -41.062027,0.18059 -103.977253,-38.03157 -117.1695292,-38.03157 14.0011492,0 39.0009472,-6.46019 53.8227622,-11.63367"
       id="path4249"
       inkscape:connector-curvature="0"
       sodipodi:nodetypes="cccacc" />
    <path
       style="fill:none;stroke:#000000;stroke-width:4.18616;stroke-linecap:butt;stroke-linejoin:miter;stroke-miterlimit:4;stroke-dasharray:none;stroke-opacity:1"
       d="m 174.05484,134.147 c 4.71104,-8.8383 41.13773,-47.606295 58.74911,-48.744545 -17.77758,0 -61.71666,-42.95001 -89.62732,-42.95001 -7.43976,0 -16.31238,0.51996 -22.36213,7.48475"
       id="path4259"
       inkscape:connector-curvature="0"
       sodipodi:nodetypes="cccc" />
    <path
       style="fill:none;stroke:#000000;stroke-width:4.18616;stroke-linecap:butt;stroke-linejoin:miter;stroke-miterlimit:4;stroke-dasharray:none;stroke-opacity:1"
       d="m 146.15043,118.00183 c 10.63766,-8.66296 25.48924,-39.923395 35.48127,-57.260855"
       id="path4261"
       inkscape:connector-curvature="0"
       sodipodi:nodetypes="cc" />
    <path
       style="fill:none;stroke:#000000;stroke-width:4.18616;stroke-linecap:butt;stroke-linejoin:miter;stroke-miterlimit:4;stroke-dasharray:none;stroke-opacity:1"
       d="m 65.212273,137.22164 c 12.50813,-4.18919 18.96254,-6.39171 30.0444,-12.72031"
       id="path4265"
       inkscape:connector-curvature="0"
       sodipodi:nodetypes="cc" />
    <path
       style="fill:none;stroke:#000000;stroke-width:4.18616;stroke-linecap:butt;stroke-linejoin:miter;stroke-miterlimit:4;stroke-dasharray:none;stroke-opacity:1"
       d="m 102.50519,120.47439 c 7.40737,-4.0106 12.10483,-9.30497 17.80066,-13.4582"
       id="path4267"
       inkscape:connector-curvature="0"
       sodipodi:nodetypes="cc" />
    <path
       style="fill:none;stroke:#000000;stroke-width:4.18616;stroke-linecap:butt;stroke-linejoin:miter;stroke-miterlimit:4;stroke-dasharray:none;stroke-opacity:1"
       d="m 126.11793,102.52092 c 9.9622,-8.794855 20.9512,-28.115375 37.88615,-28.815175 -18.8572,0 -45.17036,-31.05017 -74.493207,-31.34551 -10.92288,0 -27.28239,10.1315 -27.28239,10.1315"
       id="path4269"
       inkscape:connector-curvature="0"
       sodipodi:nodetypes="cccc" />
    <path
       style="fill:none;stroke:#000000;stroke-width:4.18616;stroke-linecap:butt;stroke-linejoin:miter;stroke-miterlimit:4;stroke-dasharray:none;stroke-opacity:1"
       d="m 50.56978,58.410395 c 0,0 -27.774212,23.48807 -42.2029932,23.48807 20.0185032,0 60.1985862,89.311235 110.1727032,90.693575 30.18671,0 44.82327,-18.41354 52.45506,-31.89941"
       id="path4271"
       inkscape:connector-curvature="0"
       sodipodi:nodetypes="cccc" />
    <path
       style="fill:none;stroke:#000000;stroke-width:4.18616;stroke-linecap:butt;stroke-linejoin:miter;stroke-miterlimit:4;stroke-dasharray:none;stroke-opacity:1"
       d="m 184.09247,55.375975 c 7.3535,-11.91612 25.12491,-27.60208 43.93965,-27.60208 -17.44896,0 -73.62866,-22.0732904 -111.39448,-20.9505804 -28.636727,0.85123 -66.283862,20.8756204 -83.374356,20.8756204 20.141979,0 47.183219,103.241755 86.788136,104.008065 7.79348,-0.0386 21.17729,-9.90852 21.17729,-9.90852"
       id="path4273"
       inkscape:connector-curvature="0"
       sodipodi:nodetypes="ccaccc" />
    <text
       xml:space="preserve"
       style="font-style:normal;font-weight:normal;font-size:14.7678px;line-height:1.25;font-family:sans-serif;fill:#000000;fill-opacity:1;stroke:none;stroke-width:0.369196"
       x="250.53752"
       y="91.056412"
       id="text842"><tspan
         sodipodi:role="line"
         id="tspan840"
         x="250.53752"
         y="91.056412"
         style="stroke-width:0.369196">(4)</tspan></text>
    <path
       style="fill:none;stroke:#000000;stroke-width:1.39539;stroke-linecap:butt;stroke-linejoin:miter;stroke-miterlimit:4;stroke-dasharray:none;stroke-opacity:1"
       d="m 247.85458,27.562985 h 20.99687"
       id="path844" />
    <text
       xml:space="preserve"
       style="font-style:normal;font-weight:normal;font-size:14.7678px;line-height:1.25;font-family:sans-serif;fill:#000000;fill-opacity:1;stroke:none;stroke-width:0.369196"
       x="253.44243"
       y="23.636745"
       id="text848"><tspan
         sodipodi:role="line"
         id="tspan846"
         x="253.44243"
         y="23.636745"
         style="stroke-width:0.369196">1</tspan></text>
    <text
       xml:space="preserve"
       style="font-style:normal;font-weight:normal;font-size:14.7678px;line-height:1.25;font-family:sans-serif;fill:#000000;fill-opacity:1;stroke:none;stroke-width:0.369196"
       x="246.10899"
       y="43.09729"
       id="text852"><tspan
         sodipodi:role="line"
         id="tspan850"
         x="246.10899"
         y="43.09729"
         style="stroke-width:0.369196">1-r</tspan></text>
    <path
       style="fill:none;stroke:#000000;stroke-width:1.39539;stroke-linecap:butt;stroke-linejoin:miter;stroke-miterlimit:4;stroke-dasharray:none;stroke-opacity:1"
       d="m 242.59435,12.272215 c -4.6672,9.60861 -5.30285,20.12759 0,31.98751"
       id="path856"
       sodipodi:nodetypes="cc" />
    <path
       style="fill:none;stroke:#000000;stroke-width:1.39539;stroke-linecap:butt;stroke-linejoin:miter;stroke-miterlimit:4;stroke-dasharray:none;stroke-opacity:1"
       d="m 274.11165,12.093795 c 4.66719,9.60861 5.30285,20.12759 0,31.98752"
       id="path856-7"
       sodipodi:nodetypes="cc" />
    <path
       style="fill:none;stroke:#000000;stroke-width:4.18616;stroke-linecap:butt;stroke-linejoin:miter;stroke-miterlimit:4;stroke-dasharray:none;stroke-opacity:1"
       d="m 462.93997,54.583792 c -12.75826,11.952603 -24.03035,20.463163 -38.49981,20.463163 12.82496,0 90.92444,77.644175 148.25991,79.240315 -22.79053,0 -69.17659,35.49595 -106.66592,35.66051 -41.06203,0.18059 -103.97726,-38.03157 -117.16953,-38.03157 14.00115,0 39.00094,-6.46019 53.82276,-11.63367"
       id="path4249-3"
       inkscape:connector-curvature="0"
       sodipodi:nodetypes="cccacc" />
    <path
       style="fill:none;stroke:#000000;stroke-width:4.18616;stroke-linecap:butt;stroke-linejoin:miter;stroke-miterlimit:4;stroke-dasharray:none;stroke-opacity:1"
       d="m 519.96677,134.147 c 4.71104,-8.8383 41.13773,-47.606295 58.74911,-48.744545 -17.77758,0 -61.71666,-42.950013 -89.62732,-42.950013 -7.43976,0 -16.31238,0.51996 -22.36213,7.48475"
       id="path4259-9"
       inkscape:connector-curvature="0"
       sodipodi:nodetypes="cccc" />
    <path
       style="fill:none;stroke:#000000;stroke-width:4.18616;stroke-linecap:butt;stroke-linejoin:miter;stroke-miterlimit:4;stroke-dasharray:none;stroke-opacity:1"
       d="m 492.06236,118.00183 c 10.63766,-8.66296 25.48924,-39.923395 35.48127,-57.260855"
       id="path4261-9"
       inkscape:connector-curvature="0"
       sodipodi:nodetypes="cc" />
    <path
       style="fill:none;stroke:#000000;stroke-width:4.18616;stroke-linecap:butt;stroke-linejoin:miter;stroke-miterlimit:4;stroke-dasharray:none;stroke-opacity:1"
       d="m 411.1242,137.22164 c 12.50813,-4.18919 18.96254,-6.39171 30.0444,-12.72031"
       id="path4265-9"
       inkscape:connector-curvature="0"
       sodipodi:nodetypes="cc" />
    <path
       style="fill:none;stroke:#000000;stroke-width:4.18616;stroke-linecap:butt;stroke-linejoin:miter;stroke-miterlimit:4;stroke-dasharray:none;stroke-opacity:1"
       d="m 448.41712,120.47439 c 7.40737,-4.0106 12.10483,-9.30497 17.80066,-13.4582"
       id="path4267-1"
       inkscape:connector-curvature="0"
       sodipodi:nodetypes="cc" />
    <path
       style="fill:none;stroke:#000000;stroke-width:4.18616;stroke-linecap:butt;stroke-linejoin:miter;stroke-miterlimit:4;stroke-dasharray:none;stroke-opacity:1"
       d="m 472.02986,102.52092 c 9.9622,-8.794855 20.9512,-28.115375 37.88615,-28.815175 -18.8572,0 -45.17036,-31.050173 -74.49321,-31.345513 -10.92288,0 -27.28239,10.1315 -27.28239,10.1315"
       id="path4269-7"
       inkscape:connector-curvature="0"
       sodipodi:nodetypes="cccc" />
    <path
       style="fill:none;stroke:#000000;stroke-width:4.18616;stroke-linecap:butt;stroke-linejoin:miter;stroke-miterlimit:4;stroke-dasharray:none;stroke-opacity:1"
       d="m 396.4817,58.410395 c 0,0 -27.77421,23.48807 -42.20299,23.48807 20.01851,0 60.19859,89.311235 110.17271,90.693575 30.18671,0 44.82327,-18.41354 52.45506,-31.89941"
       id="path4271-2"
       inkscape:connector-curvature="0"
       sodipodi:nodetypes="cccc" />
    <path
       style="fill:none;stroke:#000000;stroke-width:4.18616;stroke-linecap:butt;stroke-linejoin:miter;stroke-miterlimit:4;stroke-dasharray:none;stroke-opacity:1"
       d="m 530.0044,55.375972 c 7.3535,-11.91612 25.12491,-27.60208 43.93965,-27.60208 -17.44896,0 -73.62866,-22.0732902 -111.39448,-20.9505802 -28.63673,0.85123 -66.28387,20.8756202 -83.37436,20.8756202 20.14198,0 47.18322,103.241758 86.78814,104.008068 7.79348,-0.0386 21.17729,-9.90852 21.17729,-9.90852"
       id="path4273-3"
       inkscape:connector-curvature="0"
       sodipodi:nodetypes="ccaccc" />
    <text
       xml:space="preserve"
       style="font-style:normal;font-weight:normal;font-size:14.7678px;line-height:1.25;font-family:sans-serif;fill:#000000;fill-opacity:1;stroke:none;stroke-width:0.369196"
       x="590.44952"
       y="91.056396"
       id="text842-6"><tspan
         sodipodi:role="line"
         id="tspan840-5"
         x="590.44952"
         y="91.056396"
         style="stroke-width:0.369196">(r-1)</tspan></text>
    <path
       style="fill:none;stroke:#000000;stroke-width:1.4;stroke-linecap:butt;stroke-linejoin:miter;stroke-miterlimit:4;stroke-dasharray:none;stroke-opacity:1"
       d="m 600.42632,27.562982 h 13.67726"
       id="path844-5" />
    <text
       xml:space="preserve"
       style="font-style:normal;font-weight:normal;font-size:14.7678px;line-height:1.25;font-family:sans-serif;fill:#000000;fill-opacity:1;stroke:none;stroke-width:0.369196"
       x="602.35437"
       y="23.636745"
       id="text848-8"><tspan
         sodipodi:role="line"
         id="tspan846-1"
         x="602.35437"
         y="23.636745"
         style="stroke-width:0.369196">1</tspan></text>
    <text
       xml:space="preserve"
       style="font-style:normal;font-weight:normal;font-size:14.7678px;line-height:1.25;font-family:sans-serif;fill:#000000;fill-opacity:1;stroke:none;stroke-width:0.369196"
       x="602.05481"
       y="43.097286"
       id="text852-4"><tspan
         sodipodi:role="line"
         id="tspan850-7"
         x="602.05481"
         y="43.097286"
         style="stroke-width:0.369196">4</tspan></text>
    <path
       style="fill:none;stroke:#000000;stroke-width:1.39539;stroke-linecap:butt;stroke-linejoin:miter;stroke-miterlimit:4;stroke-dasharray:none;stroke-opacity:1"
       d="m 588.50628,12.272212 c -4.6672,9.60861 -5.30285,20.12759 0,31.98751"
       id="path856-1"
       sodipodi:nodetypes="cc" />
    <path
       style="fill:none;stroke:#000000;stroke-width:1.39539;stroke-linecap:butt;stroke-linejoin:miter;stroke-miterlimit:4;stroke-dasharray:none;stroke-opacity:1"
       d="m 620.02358,12.093792 c 4.66719,9.60861 5.30285,20.12759 0,31.98752"
       id="path856-7-3"
       sodipodi:nodetypes="cc" />
    <path
       style="fill:none;stroke:#000000;stroke-width:1.355;stroke-linecap:butt;stroke-linejoin:miter;stroke-miterlimit:4;stroke-dasharray:none;stroke-opacity:1"
       d="m 591.06869,27.562982 h 6.35765"
       id="path844-5-2" />
  </g>
</svg>
